<svg width="656" height="394" viewBox="0 0 656 394" fill="none" xmlns="http://www.w3.org/2000/svg">
<path d="M165.294 101.361C189.403 100.926 214.824 101.338 239.021 101.337L385.724 101.321C386.204 147.656 385.743 195.085 385.72 241.472C412.989 241.898 441.698 241.586 469.043 241.465V292.396L324.435 292.381L324.432 151.656L281.511 151.652L281.527 193.153L281.53 292.394L220.141 292.395L220.16 151.666C206.968 151.512 193.525 151.647 180.314 151.649C180.956 176.963 173.691 192.855 149.801 203.456L151.05 203.796C177.394 211.05 179.929 226.185 180.921 251.154L181.686 270.805C181.812 274.045 181.656 280.052 183.108 282.734C184.09 284.548 185.517 284.774 187.356 285.228L187.364 292.391L124.653 292.377C118.272 275.964 127.515 243.672 115.718 232.067C113.408 229.795 110.474 228.472 107.364 227.683C98.2825 225.381 80.2165 226.416 70.1171 226.49L70.1302 292.379L9.56201 292.379L9.5829 101.361C28.9892 100.937 49.7679 101.087 69.1773 101.334C99.3574 101.719 140.285 97.3203 165.26 116.627L165.294 101.361ZM70.0886 183.365L90.2465 183.378C99.4337 183.388 111.248 184.234 118.952 178.604C122.884 174.551 123.535 170.719 123.636 165.172C123.983 145.962 105.308 147.691 91.0943 147.686L70.1155 147.737C70.1289 159.583 70.2183 171.528 70.0886 183.365Z" fill="#1B1B1B"/>
<path d="M644.795 9.46013C645.481 9.43855 645.772 9.4877 646.432 9.57781C646.781 10.2252 646.576 14.7107 646.567 15.8418L646.544 31.9852L646.548 77.1301C646.554 90.5318 647.163 104.912 644.558 117.987C642.368 129.23 637.79 139.87 631.134 149.187C612.928 174.431 584.73 182.985 555.601 187.719L555.598 149.152C555.563 147.308 555.979 147.333 557.783 146.899C583.148 140.791 595.945 128.27 595.487 101.27C582.302 101.47 568.756 101.317 555.547 101.322C555.982 77.7526 555.422 54.0386 555.646 30.4555C555.713 23.5811 555.784 16.3402 555.451 9.48664C584.702 9.74503 615.58 9.86522 644.795 9.46013Z" fill="#EA1C22"/>
<path d="M438.441 9.39838C449.072 9.92285 462.487 9.52523 473.384 9.52818C491.882 9.53318 510.713 9.71585 529.182 9.44832L529.166 64.6583L529.179 87.5542C529.185 102.516 529.477 114.173 524.39 128.674C516.142 152.182 501.26 165.837 479.489 176.477C465.408 182.955 453.447 185.25 438.498 187.691C438.316 174.368 438.454 160.703 438.447 147.349C465.43 142.019 477.621 128.764 477.906 101.28C464.857 101.45 451.532 101.329 438.466 101.343L438.441 9.39838Z" fill="#EA1C22"/>
<path d="M406.909 320.743C424.401 320.136 439.104 333.775 439.824 351.279C440.548 368.78 427.018 383.584 409.536 384.424C391.89 385.27 376.928 371.575 376.197 353.908C375.47 336.24 389.25 321.355 406.909 320.743ZM410.858 368.889C421.073 365.699 420.641 352.555 418.572 343.873C416.976 337.179 411.156 335.788 404.987 336.371C394.971 339.625 395.333 352.984 397.492 361.537C399.138 368.068 404.837 369.337 410.858 368.889Z" fill="#1B1B1B"/>
<path d="M302.771 322.622C315.039 322.602 334.067 321.49 345.691 324.369C358.779 327.61 361.184 347.412 346.991 354.584C359.474 358.572 355.633 368.26 356.95 378.573C357.068 379.484 359.054 380.09 358.269 382.34C356.873 382.773 348.18 382.555 346.178 382.536L338.717 382.517C334.931 366 345.21 361.63 321.859 361.913L321.863 382.549C315.489 382.52 309.117 382.529 302.744 382.578L302.771 322.622ZM321.866 348.381C326.462 348.416 333.397 349.057 337.234 346.855C337.753 346.028 338.016 345.492 338.314 344.546C341.149 335.493 327.622 337.163 321.856 337.234L321.866 348.381Z" fill="#1B1B1B"/>
<path d="M249.805 321.047C264.74 320.363 275.538 328.209 277.949 343.315L259.727 343.309C258.685 340.824 257.405 338.33 254.966 337.077C249.877 334.454 243.25 336.346 240.815 341.664C238.13 347.64 237.924 355.51 239.668 361.791C241.627 368.853 248.726 371.145 255.204 368.792C258.375 367.638 259.777 365.529 261.133 362.595L252.367 362.589V349.724C259.352 349.554 266.621 349.641 273.627 349.631L278.671 349.65L278.68 382.542C274.502 382.533 270.324 382.545 266.146 382.587L265.34 377.442C260.588 381.898 256.799 383.302 250.48 383.985C232.473 385.886 220.281 374.082 219.319 356.562C218.119 334.704 227.565 322.359 249.805 321.047Z" fill="#1B1B1B"/>
<path d="M498.413 322.628L517.667 322.586L517.686 337.737C517.692 348.554 519.915 368.953 512.128 376.64C500.133 388.483 465.299 387.457 461.663 367.244C460.59 361.284 460.92 354.558 460.93 348.451L460.939 322.65C467.144 322.474 473.938 322.609 480.187 322.606C480.312 334.611 480.036 346.643 480.193 358.659C480.277 365.019 481.68 368.696 488.666 368.895C493.707 369.039 497.628 367.827 498.156 362.175C498.602 357.424 498.425 352.628 498.419 347.855L498.413 322.628Z" fill="#1B1B1B"/>
<path d="M542.129 322.631C553.599 322.583 564.618 322.535 576.088 323.058C601.406 324.205 603.741 360.598 577.504 363.865C574.157 364.368 565.268 364.198 561.444 364.198L561.453 382.542L542.078 382.578L542.129 322.631ZM561.46 349.448C565.947 349.477 572.376 350.067 576.101 347.775C577.978 345.053 578.843 340.68 575.422 338.85C571.559 336.785 565.749 337.336 561.444 337.391L561.46 349.448Z" fill="#1B1B1B"/>
</svg>
